<svg width="32" height="32" viewBox="0 0 32 32" fill="none" xmlns="http://www.w3.org/2000/svg">
<g id="Report Icon">
<path id="Vector" d="M12.0007 16.0003C11.6229 16.0003 11.3062 15.8725 11.0507 15.617C10.7951 15.3614 10.6673 15.0448 10.6673 14.667C10.6673 14.2892 10.7951 13.9725 11.0507 13.717C11.3062 13.4614 11.6229 13.3337 12.0007 13.3337H20.0007C20.3784 13.3337 20.6951 13.4614 20.9507 13.717C21.2062 13.9725 21.334 14.2892 21.334 14.667C21.334 15.0448 21.2062 15.3614 20.9507 15.617C20.6951 15.8725 20.3784 16.0003 20.0007 16.0003H12.0007ZM12.0007 10.667C11.6229 10.667 11.3062 10.5392 11.0507 10.2837C10.7951 10.0281 10.6673 9.71144 10.6673 9.33366C10.6673 8.95588 10.7951 8.63921 11.0507 8.38366C11.3062 8.1281 11.6229 8.00033 12.0007 8.00033H20.0007C20.3784 8.00033 20.6951 8.1281 20.9507 8.38366C21.2062 8.63921 21.334 8.95588 21.334 9.33366C21.334 9.71144 21.2062 10.0281 20.9507 10.2837C20.6951 10.5392 20.3784 10.667 20.0007 10.667H12.0007ZM8.00065 18.667H18.0007C18.6451 18.667 19.2451 18.8059 19.8007 19.0837C20.3562 19.3614 20.8229 19.7559 21.2007 20.267L24.0007 23.9337V5.33366H8.00065V18.667ZM8.00065 26.667H22.734L19.1006 21.9003C18.9673 21.7225 18.8062 21.5837 18.6173 21.4837C18.4284 21.3837 18.2229 21.3337 18.0007 21.3337H8.00065V26.667ZM24.0007 29.3337H8.00065C7.26732 29.3337 6.63954 29.0725 6.11732 28.5503C5.5951 28.0281 5.33398 27.4003 5.33398 26.667V5.33366C5.33398 4.60033 5.5951 3.97255 6.11732 3.45033C6.63954 2.9281 7.26732 2.66699 8.00065 2.66699H24.0007C24.734 2.66699 25.3618 2.9281 25.884 3.45033C26.4062 3.97255 26.6673 4.60033 26.6673 5.33366V26.667C26.6673 27.4003 26.4062 28.0281 25.884 28.5503C25.3618 29.0725 24.734 29.3337 24.0007 29.3337Z" fill="black"/>
</g>
</svg>
